# xmcd CD database file
#
# Track frame offsets:
#	150
#	9841
#	21738
#	32618
#	44612
#	58843
#	72508
#	83024
#	93870
#	106634
#	121347
#	132424
#
# Disc length: 1880 seconds
#
# Revision: 0
# Processed by: cddbd v1.5PL3 Copyright (c) Steve Scherf et al.
# Submitted via: CDex 1.50
#
DISCID=9a07560c
DTITLE=Casé - In Memoriam
DYEAR=1979
DGENRE=Jazz
TTITLE0=The Lonesome Road
TTITLE1=When You Love Has Gone
TTITLE2=Cop-Out
TTITLE3=Black Satin
TTITLE4=Makin' Whoopee
TTITLE5=No Moon At All
TTITLE6=Old Devil Moon
TTITLE7=Din't Get Around Much Any More
TTITLE8=You'd Be So Nice To Come To
TTITLE9=I´ll Close My Eyes
TTITLE10=Alone
TTITLE11=Too Marvelous for Words
EXTD=YEAR: 1979
EXTT0=
EXTT1=
EXTT2=
EXTT3=
EXTT4=
EXTT5=
EXTT6=
EXTT7=
EXTT8=
EXTT9=
EXTT10=
EXTT11=
PLAYORDER=
